<svg xmlns="http://www.w3.org/2000/svg" viewBox="0 0 24 24" fill="#ef4444">
  <path d="M12 2C12.5523 2 13 2.44772 13 3V4.0838C14.8308 4.36731 16.5241 5.10013 17.8891 6.17188L18.8891 5.17188C19.2796 4.78135 19.9128 4.78135 20.3033 5.17188C20.6938 5.5624 20.6938 6.19557 20.3033 6.58609L19.3033 7.58609C20.3751 8.95111 21.1079 10.6444 21.3914 12.4752H22C22.5523 12.4752 23 12.9229 23 13.4752C23 14.0275 22.5523 14.4752 22 14.4752H21.3914C21.1079 16.306 20.3751 17.9993 19.3033 19.3643L20.3033 20.3643C20.6938 20.7548 20.6938 21.388 20.3033 21.7785C19.9128 22.169 19.2796 22.169 18.8891 21.7785L17.8891 20.7785C16.5241 21.8503 14.8308 22.5831 13 22.8666V24C13 24.5523 12.5523 25 12 25C11.4477 25 11 24.5523 11 24V22.8666C9.16924 22.5831 7.47595 21.8503 6.11093 20.7785L5.11093 21.7785C4.72041 22.169 4.08724 22.169 3.69672 21.7785C3.30619 21.388 3.30619 20.7548 3.69672 20.3643L4.69672 19.3643C3.62497 17.9993 2.89215 16.306 2.60864 14.4752H2C1.44772 14.4752 1 14.0275 1 13.4752C1 12.9229 1.44772 12.4752 2 12.4752H2.60864C2.89215 10.6444 3.62497 8.95111 4.69672 7.58609L3.69672 6.58609C3.30619 6.19557 3.30619 5.5624 3.69672 5.17188C4.08724 4.78135 4.72041 4.78135 5.11093 5.17188L6.11093 6.17188C7.47595 5.10013 9.16924 4.36731 11 4.0838V3C11 2.44772 11.4477 2 12 2ZM12 6C8.68629 6 6 8.68629 6 12C6 15.3137 8.68629 18 12 18C15.3137 18 18 15.3137 18 12C18 8.68629 15.3137 6 12 6ZM12 8C14.2091 8 16 9.79086 16 12C16 14.2091 14.2091 16 12 16C9.79086 16 8 14.2091 8 12C8 9.79086 9.79086 8 12 8Z"/>
</svg>
